<svg xmlns="http://www.w3.org/2000/svg" width="30" height="32" viewBox="0 0 30 32">
  <path fill="#FFF" fill-rule="evenodd" d="M2.93892061,6.35740845 L5.87988092,4.75853521 L5.87988092,20.7491831 L11.759612,23.9464789 L11.759612,14.3525634 L14.7001114,12.7534648 L14.7115198,12.7602254 L17.6394584,14.3514366 L17.6394584,30.3417465 L14.7116351,31.9340845 L14.7002266,31.9397183 L11.760073,30.3417465 L5.88057234,27.1459155 L3.45710627e-05,23.9488451 L3.45710627e-05,7.95515493 L2.93892061,6.35740845 Z M14.6998924,1.12676056e-05 L14.7113009,0.00564507042 L17.6391242,1.59877183 L23.5195467,4.79719437 L26.4598156,6.39572958 L29.3989321,7.99449014 L29.3989321,23.9477296 L26.4597004,25.5458141 L23.519201,27.1437859 L23.519201,11.1929127 L17.669662,7.99449014 L14.7571652,6.40260282 L14.7571652,6.39572958 L14.6998924,6.39572958 L11.7596236,7.9956169 L11.7596236,1.59877183 L14.6998924,1.12676056e-05 Z"/>
</svg>
